<svg width="30" height="30" viewBox="0 0 30 30" fill="none" xmlns="http://www.w3.org/2000/svg">
<g clip-path="url(#clip0_0_183)">
<g clip-path="url(#clip1_0_183)">
<g clip-path="url(#clip2_0_183)">
<path d="M30 0H0V30H30V0Z" fill="#FAFAFA"/>
<mask id="mask0_0_183" style="mask-type:luminance" maskUnits="userSpaceOnUse" x="7" y="7" width="16" height="16">
<path d="M22.5 7.5H7.5V22.5H22.5V7.5Z" fill="white"/>
</mask>
<g mask="url(#mask0_0_183)">
<path d="M15 7.5C12.9625 7.5 12.7081 7.50938 11.9081 7.545C11.1094 7.5825 10.5656 7.70813 10.0875 7.89375C9.59438 8.085 9.17562 8.34188 8.75875 8.75875C8.34188 9.17562 8.08437 9.59372 7.89375 10.0875C7.70813 10.5656 7.58187 11.1094 7.545 11.9081C7.5075 12.7081 7.5 12.9625 7.5 15C7.5 17.0375 7.50938 17.2919 7.545 18.0919C7.5825 18.89 7.70813 19.4344 7.89375 19.9125C8.085 20.405 8.34188 20.8244 8.75875 21.2412C9.17562 21.6575 9.59372 21.9157 10.0875 22.1062C10.5663 22.2912 11.11 22.4182 11.9081 22.455C12.7081 22.4925 12.9625 22.5 15 22.5C17.0375 22.5 17.2919 22.4906 18.0919 22.455C18.89 22.4175 19.4344 22.2912 19.9125 22.1062C20.405 21.915 20.8244 21.6575 21.2412 21.2412C21.6575 20.8244 21.9157 20.4068 22.1062 19.9125C22.2912 19.4344 22.4182 18.89 22.455 18.0919C22.4925 17.2919 22.5 17.0375 22.5 15C22.5 12.9625 22.4906 12.7081 22.455 11.9081C22.4175 11.11 22.2912 10.565 22.1062 10.0875C21.915 9.59438 21.6575 9.17562 21.2412 8.75875C20.8244 8.34188 20.4068 8.08437 19.9125 7.89375C19.4344 7.70813 18.89 7.58187 18.0919 7.545C17.2919 7.5075 17.0375 7.5 15 7.5ZM15 8.85C17.0018 8.85 17.2406 8.86 18.0312 8.89437C18.7625 8.92875 19.1594 9.05 19.4231 9.15375C19.7744 9.28938 20.0231 9.45188 20.2868 9.71372C20.5488 9.97622 20.7113 10.2256 20.8469 10.5769C20.9494 10.8406 21.0719 11.2375 21.105 11.9688C21.1406 12.76 21.1488 12.9975 21.1488 15C21.1488 17.0025 21.1394 17.2406 21.1025 18.0312C21.0644 18.7625 20.9425 19.1594 20.8394 19.4231C20.6993 19.7744 20.54 20.0231 20.2775 20.2868C20.0156 20.5488 19.7625 20.7113 19.415 20.8469C19.1525 20.9494 18.7493 21.0719 18.0181 21.105C17.2219 21.1406 16.9875 21.1488 14.9812 21.1488C12.9743 21.1488 12.74 21.1394 11.9444 21.1025C11.2125 21.0644 10.8094 20.9425 10.5469 20.8394C10.1913 20.6993 9.94687 20.54 9.68503 20.2775C9.42187 20.0156 9.25375 19.7625 9.1225 19.415C9.01938 19.1525 8.89812 18.7493 8.86 18.0181C8.83188 17.2306 8.82187 16.9875 8.82187 14.9906C8.82187 12.9931 8.83188 12.7493 8.86 11.9525C8.89812 11.2212 9.01938 10.8188 9.1225 10.5563C9.25375 10.2 9.42187 9.95625 9.68503 9.69309C9.94687 9.43125 10.1913 9.2625 10.5469 9.13188C10.8094 9.02813 11.2038 8.90625 11.935 8.86875C12.7319 8.84063 12.9663 8.83125 14.9719 8.83125L15 8.85ZM15 11.1488C12.8719 11.1488 11.1488 12.8738 11.1488 15C11.1488 17.1281 12.8738 18.8512 15 18.8512C17.1281 18.8512 18.8512 17.1263 18.8512 15C18.8512 12.8719 17.1263 11.1488 15 11.1488ZM15 17.5C13.6188 17.5 12.5 16.3812 12.5 15C12.5 13.6188 13.6188 12.5 15 12.5C16.3812 12.5 17.5 13.6188 17.5 15C17.5 16.3812 16.3812 17.5 15 17.5ZM19.9038 10.9969C19.9038 11.4937 19.5 11.8969 19.0038 11.8969C18.5069 11.8969 18.1038 11.4931 18.1038 10.9969C18.1038 10.5007 18.5075 10.0975 19.0038 10.0975C19.4993 10.0969 19.9038 10.5007 19.9038 10.9969Z" fill="black"/>
</g>
</g>
</g>
</g>
<defs>
<clipPath id="clip0_0_183">
<rect width="30" height="30" fill="white"/>
</clipPath>
<clipPath id="clip1_0_183">
<rect width="30" height="30" fill="white"/>
</clipPath>
<clipPath id="clip2_0_183">
<rect width="30" height="30" fill="white"/>
</clipPath>
</defs>
</svg>
