<svg width="30" height="30" viewBox="0 0 30 30" fill="none" xmlns="http://www.w3.org/2000/svg">
<g clip-path="url(#clip0_0_193)">
<g clip-path="url(#clip1_0_193)">
<g clip-path="url(#clip2_0_193)">
<path d="M30 0H0V30H30V0Z" fill="#FAFAFA"/>
<mask id="mask0_0_193" style="mask-type:luminance" maskUnits="userSpaceOnUse" x="7" y="7" width="16" height="16">
<path d="M22.5 7.5H7.5V22.5H22.5V7.5Z" fill="white"/>
</mask>
<g mask="url(#mask0_0_193)">
<path d="M22.4712 10.3554C21.9181 10.5986 21.3275 10.7642 20.7056 10.8398C21.3394 10.458 21.8269 9.85609 22.0575 9.13794C21.4631 9.48484 20.8043 9.73731 20.1031 9.87794C19.5431 9.27856 18.745 8.90356 17.8587 8.90356C16.1606 8.90356 14.7837 10.2804 14.7837 11.9767C14.7837 12.2205 14.8118 12.4548 14.8631 12.6792C12.3068 12.5585 10.0413 11.3311 8.525 9.47547C8.25813 9.92669 8.10875 10.451 8.10875 11.0223C8.10875 12.0911 8.6525 13.0305 9.47625 13.5823C8.97187 13.5661 8.4975 13.4273 8.08375 13.1973V13.2354C8.08375 14.726 9.14187 15.9692 10.55 16.2523C10.2919 16.3217 10.0193 16.3592 9.73997 16.3592C9.54375 16.3592 9.35562 16.3404 9.1675 16.3054C9.56184 17.5261 10.6957 18.416 12.045 18.4411C10.995 19.2654 9.66441 19.7567 8.23125 19.7567C7.9875 19.7567 7.74438 19.7423 7.5 19.7148C8.86812 20.5861 10.48 21.0954 12.2231 21.0954C17.8819 21.0954 20.9725 16.4104 20.9725 12.3542C20.9725 12.2236 20.9725 12.0917 20.9632 11.9604C21.5637 11.5298 22.0882 10.9854 22.5007 10.368L22.4712 10.3554Z" fill="black"/>
</g>
</g>
</g>
</g>
<defs>
<clipPath id="clip0_0_193">
<rect width="30" height="30" fill="white"/>
</clipPath>
<clipPath id="clip1_0_193">
<rect width="30" height="30" fill="white"/>
</clipPath>
<clipPath id="clip2_0_193">
<rect width="30" height="30" fill="white"/>
</clipPath>
</defs>
</svg>
