<svg width="30" height="30" viewBox="0 0 30 30" fill="none" xmlns="http://www.w3.org/2000/svg">
<g clip-path="url(#clip0_0_203)">
<g clip-path="url(#clip1_0_203)">
<g clip-path="url(#clip2_0_203)">
<path d="M30 0H0V30H30V0Z" fill="#FAFAFA"/>
<path d="M22.1844 11.3777C22.0975 11.0662 21.9317 10.7825 21.7031 10.5539C21.4745 10.3253 21.1908 10.1596 20.8794 10.0727C19.7107 9.75953 15.0069 9.75953 15.0069 9.75953C15.0069 9.75953 10.315 9.75325 9.13438 10.0727C8.82298 10.1596 8.53926 10.3253 8.31065 10.5539C8.08205 10.7825 7.91628 11.0662 7.82938 11.3777C7.60783 12.5742 7.4986 13.7888 7.50313 15.0058C7.49945 16.2181 7.60868 17.4281 7.82938 18.6201C7.91628 18.9316 8.08205 19.2153 8.31065 19.4438C8.53926 19.6725 8.82298 19.8382 9.13438 19.9251C10.3019 20.2389 15.0069 20.2389 15.0069 20.2389C15.0069 20.2389 19.6981 20.2389 20.8794 19.9251C21.1908 19.8382 21.4745 19.6725 21.7031 19.4438C21.9317 19.2153 22.0975 18.9316 22.1844 18.6201C22.4005 17.4276 22.5051 16.2176 22.4969 15.0058C22.5059 13.7893 22.4013 12.5747 22.1844 11.3777ZM13.5056 17.2502V12.7545L17.4206 15.0058L13.5056 17.2502Z" fill="black"/>
</g>
</g>
</g>
<defs>
<clipPath id="clip0_0_203">
<rect width="30" height="30" fill="white"/>
</clipPath>
<clipPath id="clip1_0_203">
<rect width="30" height="30" fill="white"/>
</clipPath>
<clipPath id="clip2_0_203">
<rect width="30" height="30" fill="white"/>
</clipPath>
</defs>
</svg>
