<svg width="295" height="1281" viewBox="0 0 295 1281" fill="none" xmlns="http://www.w3.org/2000/svg">
<mask id="path-1-outside-1_0_121" maskUnits="userSpaceOnUse" x="-3" y="-298" width="301" height="1796" fill="black">
<rect fill="white" x="-3" y="-298" width="301" height="1796"/>
<path d="M0.486342 1362.92V1302.41H202.354C221.014 1302.41 237.224 1306.61 250.984 1315C264.743 1323.29 275.345 1334.83 282.79 1349.63C290.236 1364.43 293.958 1381.63 293.958 1401.23C293.958 1418.66 290.895 1434.5 284.77 1448.73C278.55 1462.86 269.125 1474.08 256.497 1482.37C243.774 1490.66 227.8 1494.76 208.574 1494.67V1433.74C216.208 1433.55 222.758 1432 228.224 1429.08C233.596 1426.06 237.742 1421.96 240.664 1416.78C243.491 1411.5 244.905 1405.28 244.905 1398.12C244.905 1390.58 243.303 1384.22 240.098 1379.03C236.8 1373.76 231.994 1369.75 225.679 1367.02C219.365 1364.29 211.59 1362.92 202.354 1362.92H0.486342ZM290 1251.81H0.486342V1135.89C0.486342 1114.59 3.64347 1096.82 9.95774 1082.59C16.272 1068.36 25.0366 1057.67 36.2515 1050.5C47.3721 1043.34 60.1891 1039.76 74.7025 1039.76C86.0116 1039.76 95.9542 1042.02 104.53 1046.55C113.012 1051.07 119.986 1057.29 125.452 1065.21C130.824 1073.03 134.641 1081.98 136.903 1092.07H139.73C140.201 1081.04 143.311 1070.72 149.06 1061.11C154.809 1051.4 162.867 1043.53 173.233 1037.5C183.506 1031.47 195.757 1028.45 209.988 1028.45C225.349 1028.45 239.062 1032.27 251.125 1039.9C263.094 1047.44 272.565 1058.61 279.539 1073.41C286.513 1088.2 290 1106.44 290 1128.11V1251.81ZM239.957 1190.6V1140.69C239.957 1123.64 236.706 1111.2 230.203 1103.37C223.606 1095.55 214.841 1091.64 203.909 1091.64C195.899 1091.64 188.83 1093.57 182.705 1097.44C176.579 1101.3 171.772 1106.81 168.286 1113.98C164.799 1121.04 163.055 1129.48 163.055 1139.28V1190.6H239.957ZM121.635 1190.6V1145.22C121.635 1136.83 120.175 1129.39 117.253 1122.88C114.237 1116.29 109.996 1111.1 104.53 1107.33C99.0642 1103.47 92.5144 1101.54 84.8807 1101.54C74.4198 1101.54 65.985 1105.26 59.5765 1112.7C53.168 1120.06 49.9638 1130.52 49.9638 1144.09V1190.6H121.635ZM290 988.622H0.486342V793.539H50.9533V927.411H119.939V803.576H170.406V927.411H239.533V792.974H290V988.622ZM0.486342 566.049V504.839H188.501C209.611 504.839 228.083 509.881 243.915 519.965C259.748 529.954 272.094 543.949 280.953 561.95C289.717 579.95 294.1 600.919 294.1 624.857C294.1 648.889 289.717 669.905 280.953 687.905C272.094 705.905 259.748 719.901 243.915 729.89C228.083 739.88 209.611 744.875 188.501 744.875H0.486342V683.664H183.27C194.297 683.664 204.098 681.261 212.674 676.455C221.25 671.554 227.988 664.674 232.889 655.815C237.79 646.957 240.24 636.637 240.24 624.857C240.24 612.982 237.79 602.663 232.889 593.898C227.988 585.039 221.25 578.207 212.674 573.4C204.098 568.5 194.297 566.049 183.27 566.049H0.486342ZM290 454.478H0.486342V393.267H128.138V389.45L0.486342 285.265V211.897L130.117 319.334L290 210.625V283.851L170.971 363.156L207.726 393.267H290V454.478ZM290 180.019H0.486342V-15.0631H50.9533V118.809H119.939V-5.02628H170.406V118.809H239.533V-15.6286H290V180.019ZM290 -63.7277H0.486342V-177.95C0.486342 -199.814 4.39742 -218.474 12.2196 -233.93C19.9475 -249.48 30.9267 -261.308 45.1574 -269.412C59.2938 -277.612 75.9276 -281.711 95.0589 -281.711C114.284 -281.711 130.824 -277.565 144.678 -269.271C158.437 -260.978 168.992 -248.962 176.343 -233.223C183.694 -217.579 187.37 -198.636 187.37 -176.395V-99.917H138.175V-166.499C138.175 -178.186 136.573 -187.893 133.369 -195.62C130.164 -203.348 125.358 -209.097 118.949 -212.867C112.541 -216.731 104.577 -218.663 95.0589 -218.663C85.4462 -218.663 77.3413 -216.731 70.7443 -212.867C64.1473 -209.097 59.1524 -203.301 55.7597 -195.479C52.2727 -187.751 50.5292 -177.997 50.5292 -166.217V-124.938H290V-63.7277ZM158.249 -220.076L290 -292.031V-224.459L158.249 -154.059V-220.076Z"/>
</mask>
<path d="M0.486342 1362.92H-2.51366V1365.92H0.486342V1362.92ZM0.486342 1302.41V1299.41H-2.51366V1302.41H0.486342ZM250.984 1315L249.422 1317.56L249.428 1317.56L249.435 1317.57L250.984 1315ZM282.79 1349.63L280.111 1350.98L280.111 1350.98L282.79 1349.63ZM284.77 1448.73L287.515 1449.93L287.52 1449.92L287.525 1449.91L284.77 1448.73ZM256.497 1482.37L258.135 1484.88L258.143 1484.88L256.497 1482.37ZM208.574 1494.67H205.574V1497.66L208.56 1497.67L208.574 1494.67ZM208.574 1433.74L208.5 1430.74L205.574 1430.82V1433.74H208.574ZM228.224 1429.08L229.638 1431.72L229.665 1431.71L229.693 1431.69L228.224 1429.08ZM240.664 1416.78L243.277 1418.25L243.293 1418.22L243.308 1418.2L240.664 1416.78ZM240.098 1379.03L242.65 1377.46L242.646 1377.45L242.642 1377.44L240.098 1379.03ZM225.679 1367.02L226.871 1364.27L226.871 1364.27L225.679 1367.02ZM3.48634 1362.92V1302.41H-2.51366V1362.92H3.48634ZM0.486342 1305.41H202.354V1299.41H0.486342V1305.41ZM202.354 1305.41C220.552 1305.41 236.203 1309.5 249.422 1317.56L252.545 1312.43C238.245 1303.72 221.477 1299.41 202.354 1299.41V1305.41ZM249.435 1317.57C262.694 1325.56 272.911 1336.67 280.111 1350.98L285.47 1348.28C277.779 1333 266.792 1321.02 252.532 1312.43L249.435 1317.57ZM280.111 1350.98C287.31 1365.29 290.958 1382.01 290.958 1401.23H296.958C296.958 1381.24 293.161 1363.57 285.47 1348.28L280.111 1350.98ZM290.958 1401.23C290.958 1418.31 287.959 1433.73 282.014 1447.54L287.525 1449.91C293.831 1435.26 296.958 1419.02 296.958 1401.23H290.958ZM282.024 1447.52C276.031 1461.14 266.983 1471.9 254.85 1479.86L258.143 1484.88C271.267 1476.26 281.068 1464.59 287.515 1449.93L282.024 1447.52ZM254.858 1479.86C242.743 1487.76 227.383 1491.76 208.589 1491.67L208.56 1497.67C228.216 1497.77 244.805 1493.57 258.135 1484.88L254.858 1479.86ZM211.574 1494.67V1433.74H205.574V1494.67H211.574ZM208.648 1436.74C216.643 1436.54 223.674 1434.91 229.638 1431.72L226.81 1426.43C221.841 1429.09 215.772 1430.56 208.5 1430.74L208.648 1436.74ZM229.693 1431.69C235.526 1428.42 240.076 1423.93 243.277 1418.25L238.05 1415.31C235.409 1419.99 231.666 1423.7 226.755 1426.46L229.693 1431.69ZM243.308 1418.2C246.411 1412.4 247.905 1405.68 247.905 1398.12H241.905C241.905 1404.88 240.572 1410.6 238.019 1415.36L243.308 1418.2ZM247.905 1398.12C247.905 1390.15 246.21 1383.21 242.65 1377.46L237.547 1380.61C240.396 1385.22 241.905 1391 241.905 1398.12H247.905ZM242.642 1377.44C238.988 1371.6 233.682 1367.21 226.871 1364.27L224.488 1369.77C230.305 1372.29 234.612 1375.92 237.554 1380.62L242.642 1377.44ZM226.871 1364.27C220.075 1361.32 211.867 1359.92 202.354 1359.92V1365.92C211.313 1365.92 218.655 1367.25 224.488 1369.77L226.871 1364.27ZM202.354 1359.92H0.486342V1365.92H202.354V1359.92ZM290 1251.81V1254.81H293V1251.81H290ZM0.486342 1251.81H-2.51366V1254.81H0.486342V1251.81ZM9.95774 1082.59L12.6999 1083.81L12.6999 1083.81L9.95774 1082.59ZM36.2515 1050.5L37.8662 1053.03L37.8759 1053.03L36.2515 1050.5ZM104.53 1046.55L105.942 1043.9L105.93 1043.89L104.53 1046.55ZM125.452 1065.21L127.925 1063.51L127.921 1063.5L125.452 1065.21ZM136.903 1092.07L133.975 1092.72L134.501 1095.07H136.903V1092.07ZM139.73 1092.07V1095.07H142.605L142.727 1092.19L139.73 1092.07ZM149.06 1061.11L151.635 1062.65L151.641 1062.64L149.06 1061.11ZM173.233 1037.5L174.742 1040.09L174.752 1040.09L173.233 1037.5ZM251.125 1039.9L249.521 1042.44L249.526 1042.44L251.125 1039.9ZM279.539 1073.41L276.825 1074.68L276.825 1074.68L279.539 1073.41ZM239.957 1190.6V1193.6H242.957V1190.6H239.957ZM230.203 1103.37L232.51 1101.46L232.503 1101.45L232.496 1101.44L230.203 1103.37ZM182.705 1097.44L184.305 1099.97L184.305 1099.97L182.705 1097.44ZM168.286 1113.98L170.976 1115.3L170.979 1115.3L170.983 1115.29L168.286 1113.98ZM163.055 1190.6H160.055V1193.6H163.055V1190.6ZM121.635 1190.6V1193.6H124.635V1190.6H121.635ZM117.253 1122.88L119.99 1121.65L119.986 1121.64L119.982 1121.64L117.253 1122.88ZM104.53 1107.33L102.799 1109.78L102.813 1109.79L102.827 1109.8L104.53 1107.33ZM59.5765 1112.7L61.8378 1114.68L61.8441 1114.67L61.8502 1114.66L59.5765 1112.7ZM49.9638 1190.6H46.9638V1193.6H49.9638V1190.6ZM290 1248.81H0.486342V1254.81H290V1248.81ZM3.48634 1251.81V1135.89H-2.51366V1251.81H3.48634ZM3.48634 1135.89C3.48634 1114.86 6.60599 1097.54 12.6999 1083.81L7.21556 1081.38C0.680955 1096.1 -2.51366 1114.31 -2.51366 1135.89H3.48634ZM12.6999 1083.81C18.8168 1070.02 27.2275 1059.83 37.8662 1053.03L34.6367 1047.98C22.8457 1055.51 13.7272 1066.7 7.21556 1081.38L12.6999 1083.81ZM37.8759 1053.03C48.4655 1046.21 60.7071 1042.76 74.7025 1042.76V1036.76C59.6712 1036.76 46.2787 1040.48 34.627 1047.98L37.8759 1053.03ZM74.7025 1042.76C85.6052 1042.76 95.0527 1044.94 103.131 1049.2L105.93 1043.89C96.8558 1039.11 86.4181 1036.76 74.7025 1036.76V1042.76ZM103.119 1049.19C111.178 1053.49 117.789 1059.39 122.984 1066.91L127.921 1063.5C122.183 1055.19 114.847 1048.65 105.942 1043.9L103.119 1049.19ZM122.979 1066.9C128.116 1074.38 131.79 1082.98 133.975 1092.72L139.83 1091.41C137.492 1080.98 133.532 1071.67 127.925 1063.51L122.979 1066.9ZM136.903 1095.07H139.73V1089.07H136.903V1095.07ZM142.727 1092.19C143.177 1081.67 146.138 1071.84 151.635 1062.65L146.485 1059.57C140.484 1069.6 137.226 1080.4 136.733 1091.94L142.727 1092.19ZM151.641 1062.64C157.113 1053.4 164.789 1045.88 174.742 1040.09L171.725 1034.91C160.944 1041.18 152.505 1049.4 146.479 1059.58L151.641 1062.64ZM174.752 1040.09C184.482 1034.37 196.187 1031.45 209.988 1031.45V1025.45C195.328 1025.45 182.53 1028.56 171.714 1034.91L174.752 1040.09ZM209.988 1031.45C224.827 1031.45 237.974 1035.13 249.521 1042.44L252.729 1037.37C240.149 1029.41 225.872 1025.45 209.988 1025.45V1031.45ZM249.526 1042.44C260.939 1049.63 270.056 1060.32 276.825 1074.68L282.253 1072.13C275.074 1056.9 265.249 1045.25 252.724 1037.36L249.526 1042.44ZM276.825 1074.68C283.56 1088.97 287 1106.74 287 1128.11H293C293 1106.13 289.466 1087.43 282.253 1072.13L276.825 1074.68ZM287 1128.11V1251.81H293V1128.11H287ZM242.957 1190.6V1140.69H236.957V1190.6H242.957ZM242.957 1140.69C242.957 1123.37 239.677 1110.08 232.51 1101.46L227.896 1105.29C233.735 1112.32 236.957 1123.9 236.957 1140.69H242.957ZM232.496 1101.44C225.286 1092.89 215.657 1088.64 203.909 1088.64V1094.64C214.026 1094.64 221.926 1098.21 227.91 1105.31L232.496 1101.44ZM203.909 1088.64C195.394 1088.64 187.759 1090.7 181.104 1094.9L184.305 1099.97C189.902 1096.44 196.403 1094.64 203.909 1094.64V1088.64ZM181.104 1094.9C174.459 1099.09 169.294 1105.05 165.588 1112.66L170.983 1115.29C174.251 1108.58 178.698 1103.51 184.305 1099.97L181.104 1094.9ZM165.595 1112.65C161.861 1120.22 160.055 1129.13 160.055 1139.28H166.055C166.055 1129.83 167.736 1121.87 170.976 1115.3L165.595 1112.65ZM160.055 1139.28V1190.6H166.055V1139.28H160.055ZM163.055 1193.6H239.957V1187.6H163.055V1193.6ZM124.635 1190.6V1145.22H118.635V1190.6H124.635ZM124.635 1145.22C124.635 1136.48 123.113 1128.6 119.99 1121.65L114.517 1124.11C117.236 1130.17 118.635 1137.18 118.635 1145.22H124.635ZM119.982 1121.64C116.762 1114.59 112.186 1108.97 106.234 1104.86L102.827 1109.8C107.807 1113.24 111.713 1117.98 114.525 1124.13L119.982 1121.64ZM106.262 1104.88C100.22 1100.61 93.0443 1098.54 84.8807 1098.54V1104.54C91.9845 1104.54 97.9081 1106.33 102.799 1109.78L106.262 1104.88ZM84.8807 1098.54C73.6106 1098.54 64.322 1102.59 57.3028 1110.75L61.8502 1114.66C67.6481 1107.93 75.2289 1104.54 84.8807 1104.54V1098.54ZM57.3152 1110.73C50.2726 1118.81 46.9638 1130.07 46.9638 1144.09H52.9638C52.9638 1130.96 56.0635 1121.3 61.8378 1114.68L57.3152 1110.73ZM46.9638 1144.09V1190.6H52.9638V1144.09H46.9638ZM49.9638 1193.6H121.635V1187.6H49.9638V1193.6ZM290 988.622V991.622H293V988.622H290ZM0.486342 988.622H-2.51366V991.622H0.486342V988.622ZM0.486342 793.539V790.539H-2.51366V793.539H0.486342ZM50.9533 793.539H53.9533V790.539H50.9533V793.539ZM50.9533 927.411H47.9533V930.411H50.9533V927.411ZM119.939 927.411V930.411H122.939V927.411H119.939ZM119.939 803.576V800.576H116.939V803.576H119.939ZM170.406 803.576H173.406V800.576H170.406V803.576ZM170.406 927.411H167.406V930.411H170.406V927.411ZM239.533 927.411V930.411H242.533V927.411H239.533ZM239.533 792.974V789.974H236.533V792.974H239.533ZM290 792.974H293V789.974H290V792.974ZM290 985.622H0.486342V991.622H290V985.622ZM3.48634 988.622V793.539H-2.51366V988.622H3.48634ZM0.486342 796.539H50.9533V790.539H0.486342V796.539ZM47.9533 793.539V927.411H53.9533V793.539H47.9533ZM50.9533 930.411H119.939V924.411H50.9533V930.411ZM122.939 927.411V803.576H116.939V927.411H122.939ZM119.939 806.576H170.406V800.576H119.939V806.576ZM167.406 803.576V927.411H173.406V803.576H167.406ZM170.406 930.411H239.533V924.411H170.406V930.411ZM242.533 927.411V792.974H236.533V927.411H242.533ZM239.533 795.974H290V789.974H239.533V795.974ZM287 792.974V988.622H293V792.974H287ZM0.486342 566.049H-2.51366V569.049H0.486342V566.049ZM0.486342 504.839V501.839H-2.51366V504.839H0.486342ZM243.915 519.965L242.304 522.495L242.314 522.502L243.915 519.965ZM280.953 561.95L283.65 560.636L283.644 560.625L280.953 561.95ZM280.953 687.905L283.644 689.23L283.65 689.218L280.953 687.905ZM243.915 729.89L245.516 732.427L245.516 732.427L243.915 729.89ZM0.486342 744.875H-2.51366V747.875H0.486342V744.875ZM0.486342 683.664V680.664H-2.51366V683.664H0.486342ZM212.674 676.455L214.141 679.072L214.151 679.066L214.162 679.059L212.674 676.455ZM232.889 655.815L235.514 657.268L235.514 657.268L232.889 655.815ZM232.889 593.898L230.264 595.35L230.27 595.362L232.889 593.898ZM212.674 573.4L211.185 576.005L211.196 576.011L211.207 576.017L212.674 573.4ZM3.48634 566.049V504.839H-2.51366V566.049H3.48634ZM0.486342 507.839H188.501V501.839H0.486342V507.839ZM188.501 507.839C209.113 507.839 227.011 512.755 242.304 522.495L245.527 517.434C229.154 507.006 210.109 501.839 188.501 501.839V507.839ZM242.314 522.502C257.645 532.175 269.629 545.734 278.261 563.274L283.644 560.625C274.559 542.165 261.851 527.734 245.516 517.427L242.314 522.502ZM278.255 563.263C286.786 580.782 291.1 601.286 291.1 624.857H297.1C297.1 600.552 292.649 579.118 283.65 560.636L278.255 563.263ZM291.1 624.857C291.1 648.524 286.785 669.075 278.255 686.592L283.65 689.218C292.65 670.735 297.1 649.254 297.1 624.857H291.1ZM278.261 686.58C269.629 704.121 257.645 717.68 242.314 727.353L245.516 732.427C261.851 722.121 274.559 707.69 283.644 689.23L278.261 686.58ZM242.314 727.353C227.02 737.003 209.119 741.875 188.501 741.875V747.875C210.103 747.875 229.145 742.757 245.516 732.427L242.314 727.353ZM188.501 741.875H0.486342V747.875H188.501V741.875ZM3.48634 744.875V683.664H-2.51366V744.875H3.48634ZM0.486342 686.664H183.27V680.664H0.486342V686.664ZM183.27 686.664C194.747 686.664 205.064 684.159 214.141 679.072L211.207 673.838C203.132 678.364 193.847 680.664 183.27 680.664V686.664ZM214.162 679.059C223.228 673.879 230.354 666.595 235.514 657.268L230.264 654.363C225.622 662.754 219.272 669.229 211.185 673.85L214.162 679.059ZM235.514 657.268C240.698 647.896 243.24 637.061 243.24 624.857H237.24C237.24 636.213 234.881 646.017 230.264 654.363L235.514 657.268ZM243.24 624.857C243.24 612.563 240.7 601.721 235.507 592.434L230.27 595.362C234.879 603.604 237.24 613.401 237.24 624.857H243.24ZM235.514 592.446C230.352 583.114 223.219 575.871 214.141 570.783L211.207 576.017C219.281 580.542 225.625 586.965 230.264 595.35L235.514 592.446ZM214.162 570.795C205.082 565.607 194.757 563.049 183.27 563.049V569.049C193.836 569.049 203.114 571.392 211.185 576.005L214.162 570.795ZM183.27 563.049H0.486342V569.049H183.27V563.049ZM290 454.478V457.478H293V454.478H290ZM0.486342 454.478H-2.51366V457.478H0.486342V454.478ZM0.486342 393.267V390.267H-2.51366V393.267H0.486342ZM128.138 393.267V396.267H131.138V393.267H128.138ZM128.138 389.45H131.138V388.026L130.035 387.126L128.138 389.45ZM0.486342 285.265H-2.51366V286.689L-1.41057 287.589L0.486342 285.265ZM0.486342 211.897L2.40069 209.587L-2.51366 205.514V211.897H0.486342ZM130.117 319.334L128.203 321.643L129.939 323.082L131.804 321.814L130.117 319.334ZM290 210.625H293V204.957L288.313 208.144L290 210.625ZM290 283.851L291.663 286.348L293 285.457V283.851H290ZM170.971 363.156L169.308 360.66L165.934 362.908L169.07 365.477L170.971 363.156ZM207.726 393.267L205.825 395.588L206.654 396.267H207.726V393.267ZM290 393.267H293V390.267H290V393.267ZM290 451.478H0.486342V457.478H290V451.478ZM3.48634 454.478V393.267H-2.51366V454.478H3.48634ZM0.486342 396.267H128.138V390.267H0.486342V396.267ZM131.138 393.267V389.45H125.138V393.267H131.138ZM130.035 387.126L2.38325 282.941L-1.41057 287.589L126.241 391.774L130.035 387.126ZM3.48634 285.265V211.897H-2.51366V285.265H3.48634ZM-1.42801 214.207L128.203 321.643L132.032 317.024L2.40069 209.587L-1.42801 214.207ZM131.804 321.814L291.687 213.106L288.313 208.144L128.43 316.853L131.804 321.814ZM287 210.625V283.851H293V210.625H287ZM288.337 281.355L169.308 360.66L172.635 365.653L291.663 286.348L288.337 281.355ZM169.07 365.477L205.825 395.588L209.627 390.946L172.873 360.836L169.07 365.477ZM207.726 396.267H290V390.267H207.726V396.267ZM287 393.267V454.478H293V393.267H287ZM290 180.019V183.019H293V180.019H290ZM0.486342 180.019H-2.51366V183.019H0.486342V180.019ZM0.486342 -15.0631V-18.0631H-2.51366V-15.0631H0.486342ZM50.9533 -15.0631H53.9533V-18.0631H50.9533V-15.0631ZM50.9533 118.809H47.9533V121.809H50.9533V118.809ZM119.939 118.809V121.809H122.939V118.809H119.939ZM119.939 -5.02628V-8.02628H116.939V-5.02628H119.939ZM170.406 -5.02628H173.406V-8.02628H170.406V-5.02628ZM170.406 118.809H167.406V121.809H170.406V118.809ZM239.533 118.809V121.809H242.533V118.809H239.533ZM239.533 -15.6286V-18.6286H236.533V-15.6286H239.533ZM290 -15.6286H293V-18.6286H290V-15.6286ZM290 177.019H0.486342V183.019H290V177.019ZM3.48634 180.019V-15.0631H-2.51366V180.019H3.48634ZM0.486342 -12.0631H50.9533V-18.0631H0.486342V-12.0631ZM47.9533 -15.0631V118.809H53.9533V-15.0631H47.9533ZM50.9533 121.809H119.939V115.809H50.9533V121.809ZM122.939 118.809V-5.02628H116.939V118.809H122.939ZM119.939 -2.02628H170.406V-8.02628H119.939V-2.02628ZM167.406 -5.02628V118.809H173.406V-5.02628H167.406ZM170.406 121.809H239.533V115.809H170.406V121.809ZM242.533 118.809V-15.6286H236.533V118.809H242.533ZM239.533 -12.6286H290V-18.6286H239.533V-12.6286ZM287 -15.6286V180.019H293V-15.6286H287ZM290 -63.7277V-60.7277H293V-63.7277H290ZM0.486342 -63.7277H-2.51366V-60.7277H0.486342V-63.7277ZM12.2196 -233.93L14.8963 -232.575L14.9012 -232.585L14.9061 -232.595L12.2196 -233.93ZM45.1574 -269.412L46.6421 -266.806L46.6524 -266.811L46.6626 -266.817L45.1574 -269.412ZM144.678 -269.271L146.226 -271.841L146.219 -271.845L144.678 -269.271ZM176.343 -233.223L173.625 -231.954L173.628 -231.947L176.343 -233.223ZM187.37 -99.917V-96.917H190.37V-99.917H187.37ZM138.175 -99.917H135.175V-96.917H138.175V-99.917ZM133.369 -195.62L136.14 -196.769L136.14 -196.769L133.369 -195.62ZM118.949 -212.867L117.4 -210.298L117.414 -210.289L117.428 -210.281L118.949 -212.867ZM70.7443 -212.867L72.2327 -210.262L72.2467 -210.27L72.2605 -210.278L70.7443 -212.867ZM55.7597 -195.479L58.4942 -194.245L58.5032 -194.265L58.512 -194.285L55.7597 -195.479ZM50.5292 -124.938H47.5292V-121.938H50.5292V-124.938ZM290 -124.938H293V-127.938H290V-124.938ZM158.249 -220.076L156.811 -222.709L155.249 -221.856V-220.076H158.249ZM290 -292.031H293V-297.087L288.562 -294.664L290 -292.031ZM290 -224.459L291.414 -221.813L293 -222.66V-224.459H290ZM158.249 -154.059H155.249V-149.055L159.662 -151.413L158.249 -154.059ZM290 -66.7277H0.486342V-60.7277H290V-66.7277ZM3.48634 -63.7277V-177.95H-2.51366V-63.7277H3.48634ZM3.48634 -177.95C3.48634 -199.464 7.33504 -217.635 14.8963 -232.575L9.54284 -235.285C1.45979 -219.313 -2.51366 -200.165 -2.51366 -177.95H3.48634ZM14.9061 -232.595C22.3855 -247.645 32.9615 -259.014 46.6421 -266.806L43.6727 -272.019C28.892 -263.601 17.5094 -251.315 9.53303 -235.265L14.9061 -232.595ZM46.6626 -266.817C60.2689 -274.709 76.3652 -278.711 95.0589 -278.711V-284.711C75.49 -284.711 58.3187 -280.514 43.6522 -272.008L46.6626 -266.817ZM95.0589 -278.711C113.846 -278.711 129.831 -274.663 143.137 -266.697L146.219 -271.845C131.817 -280.466 114.723 -284.711 95.0589 -284.711V-278.711ZM143.129 -266.702C156.336 -258.741 166.505 -247.198 173.625 -231.954L179.061 -234.493C171.48 -250.725 160.538 -263.214 146.226 -271.841L143.129 -266.702ZM173.628 -231.947C180.746 -216.8 184.37 -198.317 184.37 -176.395H190.37C190.37 -198.955 186.643 -218.358 179.058 -234.499L173.628 -231.947ZM184.37 -176.395V-99.917H190.37V-176.395H184.37ZM187.37 -102.917H138.175V-96.917H187.37V-102.917ZM141.175 -99.917V-166.499H135.175V-99.917H141.175ZM141.175 -166.499C141.175 -178.434 139.542 -188.563 136.14 -196.769L130.597 -194.471C133.603 -187.222 135.175 -177.937 135.175 -166.499H141.175ZM136.14 -196.769C132.719 -205.02 127.51 -211.312 120.471 -215.453L117.428 -210.281C123.206 -206.883 127.61 -201.676 130.597 -194.471L136.14 -196.769ZM120.498 -215.436C113.511 -219.649 104.977 -221.663 95.0589 -221.663V-215.663C104.178 -215.663 111.571 -213.813 117.4 -210.298L120.498 -215.436ZM95.0589 -221.663C85.0486 -221.663 76.3892 -219.65 69.2281 -215.456L72.2605 -210.278C78.2933 -213.812 85.8437 -215.663 95.0589 -215.663V-221.663ZM69.2559 -215.472C62.0282 -211.342 56.625 -205.013 53.0074 -196.673L58.512 -194.285C61.6799 -201.589 66.2664 -206.853 72.2327 -210.262L69.2559 -215.472ZM53.0252 -196.713C49.309 -188.477 47.5292 -178.267 47.5292 -166.217H53.5292C53.5292 -177.727 55.2364 -187.025 58.4942 -194.245L53.0252 -196.713ZM47.5292 -166.217V-124.938H53.5292V-166.217H47.5292ZM50.5292 -121.938H290V-127.938H50.5292V-121.938ZM287 -124.938V-63.7277H293V-124.938H287ZM159.687 -217.444L291.438 -289.398L288.562 -294.664L156.811 -222.709L159.687 -217.444ZM287 -292.031V-224.459H293V-292.031H287ZM288.586 -227.105L156.835 -156.705L159.662 -151.413L291.414 -221.813L288.586 -227.105ZM161.249 -154.059V-220.076H155.249V-154.059H161.249Z" fill="white" mask="url(#path-1-outside-1_0_121)"/>
</svg>
